# xmcd CD database file
#
# Track frame offsets:
#	150
#	26718
#	44476
#	67427
#
# Disc length: 1180 seconds
#
# Revision: 0
# Processed by: cddbd v1.5.1PL2 Copyright (c) Steve Scherf et al.
# Submitted via: CDex 1.51
#
DISCID=3b049a04
DTITLE=pal@pop - 空想X
DYEAR=2002
DGENRE=JPop
TTITLE0=空想X(new version)
TTITLE1=Lover's Delight
TTITLE2=Fin(less mix)
TTITLE3=空想X(radio edit)
EXTD=YEAR: 2002
EXTT0=
EXTT1=
EXTT2=
EXTT3=
PLAYORDER=
